<svg width="130" height="131" viewBox="0 0 130 131" fill="none" xmlns="http://www.w3.org/2000/svg">
<path d="M63.2126 131C98.1239 131 126.425 114.66 126.425 94.5042C126.425 74.3481 98.1239 58.0083 63.2126 58.0083C28.3012 58.0083 0 74.3481 0 94.5042C0 114.66 28.3012 131 63.2126 131Z" fill="#F5F5F5"/>
<path d="M96.9666 122.38C103.945 122.38 109.603 118.833 109.603 114.457C109.603 110.081 103.945 106.534 96.9666 106.534C89.9879 106.534 84.3306 110.081 84.3306 114.457C84.3306 118.833 89.9879 122.38 96.9666 122.38Z" fill="#E6E6E6"/>
<path d="M119.914 86.0429L117.293 84.5719C117.293 84.5719 117.046 79.7852 117.422 75.9664C117.949 70.6001 121.415 64.1394 125.551 65.6693C129.688 67.1992 123.654 72.6507 122.315 77.205C120.976 81.7593 119.914 86.0429 119.914 86.0429Z" fill="#37474F"/>
<path d="M118.693 85.481C118.712 85.4806 118.73 85.4765 118.747 85.469C118.764 85.4616 118.779 85.4508 118.791 85.4374C118.804 85.4239 118.814 85.4081 118.82 85.3908C118.827 85.3736 118.83 85.3552 118.829 85.3368C118.423 73.4127 124.36 67.411 124.419 67.3521C124.445 67.3264 124.46 67.2913 124.46 67.2546C124.46 67.2179 124.446 67.1826 124.42 67.1565C124.394 67.1304 124.359 67.1155 124.323 67.1152C124.286 67.115 124.251 67.1293 124.224 67.155C124.163 67.2139 118.14 73.3009 118.549 85.3486C118.55 85.3667 118.554 85.3846 118.562 85.4011C118.57 85.4175 118.58 85.4324 118.594 85.4447C118.607 85.457 118.623 85.4665 118.64 85.4727C118.657 85.4789 118.675 85.4817 118.693 85.481Z" fill="white"/>
<path d="M121.353 86.8726L119.714 85.9253C119.714 85.9253 119.435 82.5419 121.094 78.4289C122.539 74.8485 126.125 71.88 127.926 72.5037C129.726 73.1274 129.691 74.4072 128.808 75.7399C127.926 77.0727 122.58 80.2854 121.353 86.8726Z" fill="#455A64"/>
<path d="M120.503 86.5103C120.521 86.5107 120.539 86.5074 120.556 86.5006C120.574 86.4938 120.589 86.4837 120.602 86.4708C120.615 86.458 120.626 86.4426 120.633 86.4256C120.64 86.4086 120.644 86.3904 120.644 86.372C120.612 78.8316 127.69 73.7212 127.764 73.683C127.793 73.6612 127.813 73.6287 127.819 73.5925C127.825 73.5562 127.817 73.519 127.796 73.4888C127.785 73.4739 127.772 73.4611 127.756 73.4514C127.741 73.4416 127.724 73.4351 127.706 73.4321C127.688 73.429 127.669 73.4297 127.651 73.4338C127.633 73.438 127.617 73.4457 127.602 73.4565C127.528 73.5065 120.332 78.6874 120.364 86.372C120.364 86.3902 120.368 86.4081 120.375 86.4249C120.382 86.4417 120.392 86.4569 120.405 86.4698C120.418 86.4826 120.433 86.4928 120.45 86.4998C120.467 86.5067 120.484 86.5103 120.503 86.5103Z" fill="white"/>
<path d="M72.8242 64.0866L71.1207 63.1128C71.0455 63.0564 70.9859 62.9816 70.9478 62.8956C70.9097 62.8095 70.8943 62.7152 70.903 62.6215V51.2711C70.9199 50.9667 71.0218 50.6732 71.1972 50.4238L72.8918 51.4006C72.7222 51.6494 72.6263 51.9411 72.6153 52.242V63.6012C72.6045 63.6933 72.6182 63.7866 72.6548 63.8718C72.6915 63.957 72.7499 64.0311 72.8242 64.0866Z" fill="#007367"/>
<path opacity="0.55" d="M72.8242 64.0866L71.1207 63.1128C71.0455 63.0564 70.9859 62.9816 70.9478 62.8956C70.9097 62.8095 70.8943 62.7152 70.903 62.6215V51.2711C70.9199 50.9667 71.0218 50.6732 71.1972 50.4238L72.8918 51.4006C72.7222 51.6494 72.6263 51.9411 72.6153 52.242V63.6012C72.6045 63.6933 72.6182 63.7866 72.6548 63.8718C72.6915 63.957 72.7499 64.0311 72.8242 64.0866Z" fill="white"/>
<path d="M73.3655 50.9057L97.1313 37.187C97.5579 36.9399 97.9021 37.14 97.9021 37.6313V49.0052C97.888 49.2724 97.8108 49.5325 97.6768 49.7642C97.5428 49.9958 97.3559 50.1924 97.1313 50.3379L73.3655 64.036C72.9419 64.2802 72.5947 64.0802 72.5947 63.5889V52.2414C72.6098 51.974 72.6874 51.7139 72.8213 51.4819C72.9551 51.2499 73.1415 51.0526 73.3655 50.9057Z" fill="#007367"/>
<path opacity="0.7" d="M73.3655 50.9057L97.1313 37.187C97.5579 36.9399 97.9021 37.14 97.9021 37.6313V49.0052C97.888 49.2724 97.8108 49.5325 97.6768 49.7642C97.5428 49.9958 97.3559 50.1924 97.1313 50.3379L73.3655 64.036C72.9419 64.2802 72.5947 64.0802 72.5947 63.5889V52.2414C72.6098 51.974 72.6874 51.7139 72.8213 51.4819C72.9551 51.2499 73.1415 51.0526 73.3655 50.9057Z" fill="white"/>
<path d="M95.972 36.1604L97.6489 37.1165C97.5637 37.0848 97.4719 37.0744 97.3817 37.0862C97.2914 37.098 97.2054 37.1316 97.1311 37.1842L73.3654 50.9059C73.1646 51.0301 72.9954 51.1993 72.8711 51.4001L71.1765 50.4234C71.2974 50.2245 71.4638 50.0571 71.6619 49.935L95.4277 36.2133C95.5314 36.1494 95.6501 36.1139 95.7719 36.1104C95.8418 36.1098 95.9106 36.127 95.972 36.1604Z" fill="#007367"/>
<path opacity="0.85" d="M95.972 36.1604L97.6489 37.1165C97.5637 37.0848 97.4719 37.0744 97.3817 37.0862C97.2914 37.098 97.2054 37.1316 97.1311 37.1842L73.3654 50.9059C73.1646 51.0301 72.9954 51.1993 72.8711 51.4001L71.1765 50.4234C71.2974 50.2245 71.4638 50.0571 71.6619 49.935L95.4277 36.2133C95.5314 36.1494 95.6501 36.1139 95.7719 36.1104C95.8418 36.1098 95.9106 36.127 95.972 36.1604Z" fill="white"/>
<path d="M75.2249 51.9563L95.272 40.3588C95.4779 40.2411 95.6427 40.3235 95.6427 40.5441C95.6337 40.6686 95.5955 40.7892 95.5311 40.896C95.4666 41.0029 95.3779 41.093 95.272 41.159L75.2249 52.7506C75.0219 52.8683 74.8542 52.7859 74.8542 52.5653C74.8643 52.4419 74.9031 52.3226 74.9674 52.2169C75.0318 52.1111 75.12 52.0219 75.2249 51.9563Z" fill="#007367"/>
<path d="M75.2249 60.0704L95.272 48.4788C95.4779 48.3611 95.6427 48.4435 95.6427 48.6671C95.6337 48.7912 95.5955 48.9113 95.531 49.0177C95.4666 49.1241 95.3778 49.2137 95.272 49.279L75.2249 60.8589C75.0219 60.9766 74.8542 60.8913 74.8542 60.6706C74.8661 60.5489 74.9056 60.4315 74.9699 60.3275C75.0342 60.2234 75.1214 60.1355 75.2249 60.0704Z" fill="#007367"/>
<path d="M75.2249 56.0074L95.272 44.4128C95.4779 44.2951 95.6427 44.3804 95.6427 44.6011C95.6333 44.7254 95.5948 44.8458 95.5304 44.9526C95.4661 45.0594 95.3775 45.1496 95.272 45.216L75.2249 56.8076C75.0219 56.9253 74.8542 56.84 74.8542 56.6193C74.8639 56.4954 74.9024 56.3755 74.9668 56.2692C75.0312 56.163 75.1196 56.0733 75.2249 56.0074Z" fill="#007367"/>
<path d="M75.2249 58.0319L95.272 46.4403C95.4779 46.3226 95.6427 46.405 95.6427 46.6257C95.6337 46.7501 95.5955 46.8707 95.5311 46.9776C95.4666 47.0844 95.3779 47.1745 95.272 47.2406L75.2249 58.8322C75.0219 58.9499 74.8542 58.8675 74.8542 58.6468C74.8634 58.5224 74.9018 58.4019 74.9662 58.2951C75.0306 58.1883 75.1192 58.0981 75.2249 58.0319Z" fill="#007367"/>
<path d="M75.2249 53.9806L95.272 42.389C95.4779 42.2713 95.6427 42.3537 95.6427 42.5773C95.6337 42.7013 95.5955 42.8215 95.531 42.9279C95.4666 43.0343 95.3778 43.1238 95.272 43.1892L75.2249 54.7749C75.0219 54.8926 74.8542 54.8073 74.8542 54.5867C74.8652 54.4639 74.9044 54.3454 74.9687 54.2402C75.033 54.1351 75.1207 54.0463 75.2249 53.9806Z" fill="#007367"/>
<path d="M72.6948 46.7636L71.0767 45.8428C71.0012 45.7865 70.9415 45.7118 70.9034 45.6257C70.8652 45.5396 70.8499 45.4452 70.859 45.3515V15.1603C70.8748 14.8557 70.9768 14.5618 71.1532 14.313L72.7301 15.225C72.5697 15.4686 72.4791 15.7515 72.4683 16.0429V46.2664C72.4573 46.3621 72.4725 46.4589 72.5125 46.5465C72.5524 46.6341 72.6154 46.7092 72.6948 46.7636Z" fill="#263238"/>
<path d="M97.4078 0.885566C97.2651 0.872847 97.1223 0.908043 97.0018 0.985594L73.2361 14.7072C73.028 14.8374 72.8536 15.0148 72.7271 15.225L71.1472 14.313C71.2701 14.1156 71.436 13.9487 71.6327 13.8246L95.3984 0.105927C95.5015 0.0403098 95.6205 0.00372039 95.7426 1.33283e-05C95.8125 -0.000548535 95.8813 0.0166624 95.9427 0.0500279L97.4078 0.885566Z" fill="#37474F"/>
<path d="M73.2361 14.707L97.0019 0.988307C97.4285 0.741176 97.7727 0.941234 97.7727 1.43255V31.6826C97.7586 31.9498 97.6814 32.2099 97.5474 32.4415C97.4134 32.6732 97.2265 32.8698 97.0019 33.0153L73.2391 46.7134C72.8125 46.9576 72.4653 46.7575 72.4653 46.2662V16.0427C72.4804 15.7753 72.558 15.5151 72.6919 15.2832C72.8257 15.0512 73.0121 14.8539 73.2361 14.707Z" fill="#455A64"/>
<path d="M74.5539 15.693L95.8837 3.37759C96.2661 3.15694 96.5751 3.33641 96.5751 3.77771V30.9445C96.5622 31.1844 96.4928 31.4178 96.3727 31.6259C96.2525 31.834 96.085 32.0107 95.8837 32.1419L74.5539 44.4337C74.1715 44.6543 73.8625 44.4749 73.8625 44.0336V16.8904C73.8755 16.6505 73.9448 16.417 74.0649 16.2089C74.1851 16.0009 74.3526 15.8241 74.5539 15.693Z" fill="#F0F0F0"/>
<mask id="mask0_964_4481" style="mask-type:luminance" maskUnits="userSpaceOnUse" x="73" y="3" width="24" height="42">
<path d="M74.5539 15.693L95.8837 3.37759C96.2661 3.15694 96.5751 3.33641 96.5751 3.77771V30.9445C96.5622 31.1844 96.4928 31.4178 96.3727 31.6259C96.2525 31.834 96.085 32.0107 95.8837 32.1419L74.5539 44.4337C74.1715 44.6543 73.8625 44.4749 73.8625 44.0336V16.8904C73.8755 16.6505 73.9448 16.417 74.0649 16.2089C74.1851 16.0009 74.3526 15.8241 74.5539 15.693Z" fill="white"/>
</mask>
<g mask="url(#mask0_964_4481)">
<path d="M92.2854 26.8257C91.9109 26.1712 91.3157 25.6713 90.6064 25.4153C89.8971 25.1593 89.1199 25.1639 88.4137 25.4282C88.4137 25.4282 88.2901 27.7024 89.4552 30.9681C89.4552 30.9681 94.5302 38.3644 95.5422 39.0528L96.9456 34.3985C96.9456 34.3985 93.2416 28.3232 92.2854 26.8257Z" fill="#B16668"/>
<path d="M79.8496 28.4052C78.6522 28.8612 78.8317 30.1705 78.8699 31.3326C78.8905 32.0475 79.0082 33.2596 79.0847 34.9218L79.426 40.2734L79.3495 51.8827C83.2418 53.2095 88.1932 52.0415 92.3474 47.4255C92.3474 47.4255 92.115 32.5682 92.115 30.1293C92.115 30.0175 92.115 29.9086 92.115 29.7968C91.9679 26.4605 90.3115 25.0337 88.4198 25.4338C87.8137 25.5632 86.5016 25.981 85.6337 26.2517L83.2506 27.0225C83.2506 27.0225 81.0441 27.9492 79.8496 28.4052Z" fill="#007367"/>
<path opacity="0.2" d="M79.8496 28.4052C78.6522 28.8612 78.8317 30.1705 78.8699 31.3326C78.8905 32.0475 79.0082 33.2596 79.0847 34.9218L79.426 40.2734L79.3495 51.8827C83.2418 53.2095 88.1932 52.0415 92.3474 47.4255C92.3474 47.4255 92.115 32.5682 92.115 30.1293C92.115 30.0175 92.115 29.9086 92.115 29.7968C91.9679 26.4605 90.3115 25.0337 88.4198 25.4338C87.8137 25.5632 86.5016 25.981 85.6337 26.2517L83.2506 27.0225C83.2506 27.0225 81.0441 27.9492 79.8496 28.4052Z" fill="black"/>
<path d="M88.864 16.8462C88.864 15.7724 89.0317 14.3631 90.1232 13.8483C90.6763 13.5864 91.4648 13.4776 91.9914 13.8189C92.518 14.1601 92.8534 14.6426 92.7593 15.3134C92.6672 15.8142 92.4166 16.2722 92.0444 16.6197C91.98 16.6692 91.9319 16.7368 91.9061 16.8139C91.8963 16.8759 91.9013 16.9395 91.9208 16.9992C92.062 17.6612 92.0532 18.4202 91.6031 18.9262C91.4482 19.0984 91.2524 19.2287 91.0339 19.3053C90.8154 19.3819 90.5811 19.4023 90.3527 19.3646C90.096 19.3039 89.8566 19.1854 89.6527 19.0182C89.4487 18.851 89.2857 18.6394 89.1759 18.3996C88.9516 17.9134 88.8448 17.3813 88.864 16.8462Z" fill="#263238"/>
<path d="M81.6677 20.6177C81.6677 20.6177 82.2738 23.7392 82.515 24.2128C82.5878 24.3507 82.6941 24.468 82.8242 24.5539C82.9543 24.6398 83.104 24.6915 83.2594 24.7042L83.2182 22.4094L81.6677 20.6177Z" fill="#263238"/>
<path d="M82.4121 15.7134C82.4121 15.7134 81.8502 15.8517 81.8237 15.8664C81.5646 15.963 81.3318 16.1192 81.1441 16.3224C80.9982 16.4774 80.8921 16.6654 80.8347 16.8703C80.7773 17.0752 80.7704 17.291 80.8146 17.4992C80.9089 17.8025 81.0802 18.0761 81.3118 18.2935C81.1336 18.4753 80.9944 18.6916 80.9028 18.929C80.8131 19.169 80.8131 19.4334 80.9028 19.6734C80.9655 19.813 81.0467 19.9436 81.1441 20.0617C81.3589 20.3353 81.6119 20.603 81.9826 20.5619C82.2532 20.5324 82.5268 20.4883 82.7975 20.453L82.4121 15.7134Z" fill="#263238"/>
<path d="M83.1388 20.3737C82.9123 20.5944 82.5857 20.1737 82.3033 19.9089C82.0208 19.6441 81.1029 19.4264 80.644 20.665C80.185 21.9036 81.05 23.1951 81.7737 23.2657C83.0211 23.3834 83.2094 22.4096 83.2094 22.4096L83.2506 27.5346C84.6128 30.3855 90.2262 29.2999 87.3695 26.3402V24.7662C87.9416 24.7163 88.5056 24.5978 89.0494 24.4131C89.9673 24.0042 90.5468 23.0127 90.8146 21.7918C91.2618 19.8294 91.2235 18.6673 91.0735 15.1281C90.9705 12.698 86.6369 11.9477 84.4774 14.0954C82.318 16.2431 83.1388 20.3737 83.1388 20.3737Z" fill="#B16668"/>
<path d="M82.2973 19.9087C82.1502 19.7939 82.1649 19.4585 82.156 19.2967C82.1408 18.9044 82.1477 18.5115 82.1766 18.1199C82.2149 17.5021 82.3855 16.8548 82.2443 16.2488C82.1742 16.0285 82.1531 15.7955 82.1825 15.5662C82.1993 15.4514 82.2523 15.345 82.3338 15.2624C82.4153 15.1799 82.521 15.1255 82.6356 15.1073C82.5002 14.7533 82.4629 14.3693 82.5275 13.9959C82.5921 13.6225 82.7562 13.2734 83.0026 12.9854C83.249 12.6975 83.5685 12.4813 83.9275 12.3597C84.2864 12.2382 84.6715 12.2157 85.0422 12.2947C85.1415 11.9557 85.3307 11.6498 85.5897 11.4095C85.8486 11.1692 86.1677 11.0034 86.5132 10.9296C86.9088 10.8461 87.3188 10.8602 87.7077 10.9708C87.9058 11.0243 88.0898 11.1209 88.2464 11.2536C88.403 11.3864 88.5284 11.5519 88.6138 11.7386C88.858 11.215 89.7024 10.7442 90.4732 10.8325C91.1204 10.909 91.7853 11.3091 92.006 11.8328C92.1565 12.1729 92.2342 12.5406 92.2342 12.9125C92.2342 13.2844 92.1565 13.6522 92.006 13.9922C91.8855 14.2286 91.7153 14.4362 91.5071 14.6007C91.2989 14.7653 91.0576 14.8828 90.7997 14.9455C90.2742 15.0726 89.7197 14.9859 89.2581 14.7042C89.2569 14.9824 89.1662 15.2528 88.9992 15.4754C88.8323 15.698 88.5981 15.8608 88.3314 15.9399C87.9606 16.0596 87.5647 16.0789 87.184 15.9958C86.8262 15.859 86.5007 15.6496 86.2278 15.3809C86.204 15.6322 86.1116 15.8722 85.9606 16.0746C85.8096 16.277 85.6059 16.4339 85.3717 16.5283C85.1365 16.6165 84.885 16.6525 84.6345 16.6337C84.384 16.6149 84.1406 16.5418 83.9213 16.4194C84.0307 16.7694 84.092 17.1326 84.1037 17.4991C84.12 17.6896 84.0908 17.8812 84.0183 18.0581C83.9791 18.1443 83.9162 18.2176 83.8371 18.2696C83.758 18.3217 83.6658 18.3504 83.5712 18.3523C83.7833 18.8883 83.8591 19.4686 83.7918 20.0411C83.7853 20.27 83.6953 20.4887 83.5388 20.6559C83.0298 21.1267 82.6121 20.1558 82.2973 19.9087Z" fill="#263238"/>
<path d="M82.415 16.0047L81.0322 15.5193C81.2293 15.0103 81.6971 14.7073 82.0796 14.8396C82.4621 14.972 82.6092 15.4957 82.415 16.0047Z" fill="#263238"/>
<path d="M87.3546 24.7661C87.3546 24.7661 85.2952 24.8367 84.5891 24.5896C84.1595 24.4398 83.8043 24.1299 83.5977 23.7246C83.6985 24.1532 83.8912 24.5547 84.1625 24.9014C84.6862 25.534 87.3546 25.3898 87.3546 25.3898V24.7661Z" fill="#9A4A4D"/>
<path d="M86.8252 19.2031C86.8248 19.3314 86.785 19.4566 86.7114 19.5618C86.6378 19.6669 86.5338 19.7471 86.4133 19.7915C86.1868 19.8533 86.0015 19.6797 86.0015 19.409C86.0024 19.2807 86.0422 19.1558 86.1158 19.0507C86.1893 18.9456 86.2931 18.8653 86.4133 18.8206C86.6399 18.7588 86.8252 18.9324 86.8252 19.2031Z" fill="#263238"/>
<path d="M86.5133 17.8552L85.513 18.4906C85.4695 18.3394 85.4745 18.1783 85.5272 18.03C85.58 17.8817 85.6779 17.7537 85.8072 17.6639C85.8638 17.6223 85.9291 17.5941 85.9982 17.5812C86.0673 17.5683 86.1384 17.5711 86.2063 17.5895C86.2741 17.6079 86.3369 17.6413 86.3901 17.6873C86.4432 17.7333 86.4853 17.7907 86.5133 17.8552Z" fill="#263238"/>
<path d="M87.1694 21.9771L88.1049 22.13C88.0785 22.2791 88.0003 22.414 87.884 22.511C87.7677 22.6079 87.6208 22.6605 87.4694 22.6596C87.2105 22.6184 87.0752 22.3124 87.1694 21.9771Z" fill="#9A4A4D"/>
<path d="M90.5439 17.6583L89.7437 17.1611C89.9055 16.8522 90.2173 16.7139 90.438 16.8492C90.5509 16.9482 90.624 17.0849 90.6435 17.2338C90.663 17.3827 90.6276 17.5336 90.5439 17.6583Z" fill="#263238"/>
<path d="M90.335 18.3761C90.3347 18.5041 90.2954 18.629 90.2224 18.7341C90.1493 18.8392 90.0459 18.9196 89.926 18.9645C89.6995 19.0262 89.5142 18.8527 89.5142 18.582C89.5155 18.4538 89.5555 18.329 89.629 18.224C89.7025 18.119 89.8061 18.0387 89.926 17.9936C90.1526 17.9318 90.335 18.1025 90.335 18.3761Z" fill="#263238"/>
<path d="M88.105 18.4907L88.1521 21.3504L89.6231 20.5825L88.105 18.4907Z" fill="#9A4A4D"/>
<path d="M79.1052 52.8918C79.1722 53.6642 79.3954 54.4149 79.7613 55.0984C80.1667 55.7343 80.6622 56.3081 81.2323 56.8018C81.2932 56.8485 81.3375 56.9134 81.3588 56.9871C81.3794 57.1401 81.2058 57.246 81.0646 57.2813C80.7429 57.3292 80.4146 57.2647 80.1349 57.0989C79.9252 56.9764 79.7323 56.827 79.5612 56.6547C79.5024 56.6017 79.1375 56.3428 79.1375 56.284C79.2531 56.9036 79.4698 57.5 79.7789 58.0492C80.0831 58.5219 80.3572 59.0132 80.5997 59.5202C80.738 59.8527 80.8027 60.2822 80.5468 60.5352C80.4386 60.6268 80.3107 60.6922 80.1731 60.7265C79.7072 60.8578 79.2148 60.8632 78.746 60.7423C78.2773 60.6213 77.849 60.3784 77.5047 60.038C77.203 59.7099 76.9512 59.3392 76.7574 58.9377C76.6397 58.7169 76.5336 58.49 76.4397 58.2581C76.283 57.8536 76.162 57.4362 76.0778 57.0107C75.8513 55.9898 75.766 54.9513 75.61 53.9274C75.1469 50.6667 74.9618 47.3725 75.0569 44.0804C75.5865 33.1773 76.3308 29.4909 79.8554 28.4053C80.8528 29.1467 81.2999 32.3211 80.2496 35.1514C79.7284 38.3128 79.3866 41.5011 79.2258 44.7012C79.1611 46.2134 78.9169 49.2614 78.9875 50.7736C79.0199 51.4502 79.0199 52.1269 79.1052 52.8918Z" fill="#B16668"/>
</g>
<path d="M8.373 101.274L6.66956 100.3C6.59429 100.243 6.53475 100.169 6.49663 100.083C6.45852 99.9965 6.4431 99.9022 6.45185 99.8085V88.4611C6.46874 88.1567 6.57067 87.8631 6.74605 87.6138L8.41124 88.5905C8.2416 88.8393 8.14573 89.131 8.13469 89.4319V100.776C8.12493 100.873 8.142 100.971 8.18403 101.058C8.22607 101.146 8.29145 101.221 8.373 101.274Z" fill="#007367"/>
<path opacity="0.55" d="M8.373 101.274L6.66956 100.3C6.59429 100.243 6.53475 100.169 6.49663 100.083C6.45852 99.9965 6.4431 99.9022 6.45185 99.8085V88.4611C6.46874 88.1567 6.57067 87.8631 6.74605 87.6138L8.41124 88.5905C8.2416 88.8393 8.14573 89.131 8.13469 89.4319V100.776C8.12493 100.873 8.142 100.971 8.18403 101.058C8.22607 101.146 8.29145 101.221 8.373 101.274Z" fill="white"/>
<path d="M8.91437 88.0962L32.6801 74.3745C33.1038 74.1274 33.4509 74.3275 33.4509 74.8188V86.1927C33.4358 86.4604 33.3578 86.7208 33.2234 86.9528C33.089 87.1849 32.9019 87.382 32.6772 87.5284L8.91437 101.224C8.48777 101.468 8.14355 101.268 8.14355 100.776V89.4289C8.15768 89.1617 8.2349 88.9016 8.36887 88.67C8.50285 88.4383 8.68978 88.2417 8.91437 88.0962Z" fill="#007367"/>
<path opacity="0.7" d="M8.91437 88.0962L32.6801 74.3745C33.1038 74.1274 33.4509 74.3275 33.4509 74.8188V86.1927C33.4358 86.4604 33.3578 86.7208 33.2234 86.9528C33.089 87.1849 32.9019 87.382 32.6772 87.5284L8.91437 101.224C8.48777 101.468 8.14355 101.268 8.14355 100.776V89.4289C8.15768 89.1617 8.2349 88.9016 8.36887 88.67C8.50285 88.4383 8.68978 88.2417 8.91437 88.0962Z" fill="white"/>
<path d="M31.5208 73.3505L33.1978 74.3067C33.1125 74.275 33.0208 74.2645 32.9305 74.2763C32.8403 74.2881 32.7543 74.3218 32.68 74.3744L8.91425 88.096C8.71022 88.2192 8.53791 88.3884 8.41116 88.5903L6.71655 87.6135C6.8414 87.4179 7.01077 87.2546 7.21081 87.1369L30.9766 73.4153C31.0803 73.3513 31.199 73.3158 31.3208 73.3123C31.3896 73.3081 31.4584 73.3212 31.5208 73.3505Z" fill="#007367"/>
<path opacity="0.85" d="M31.5208 73.3505L33.1978 74.3067C33.1125 74.275 33.0208 74.2645 32.9305 74.2763C32.8403 74.2881 32.7543 74.3218 32.68 74.3744L8.91425 88.096C8.71022 88.2192 8.53791 88.3884 8.41116 88.5903L6.71655 87.6135C6.8414 87.4179 7.01077 87.2546 7.21081 87.1369L30.9766 73.4153C31.0803 73.3513 31.199 73.3158 31.3208 73.3123C31.3896 73.3081 31.4584 73.3212 31.5208 73.3505Z" fill="white"/>
<path d="M10.7647 89.1437L30.8118 77.5521C31.0148 77.4344 31.1825 77.5167 31.1825 77.7403C31.1728 77.8642 31.1343 77.9841 31.0699 78.0904C31.0055 78.1967 30.9171 78.2864 30.8118 78.3523L10.7647 89.9439C10.5588 90.0616 10.394 89.9792 10.394 89.7586C10.403 89.6341 10.4412 89.5135 10.5057 89.4067C10.5701 89.2998 10.6589 89.2097 10.7647 89.1437Z" fill="#007367"/>
<path d="M10.7647 97.2461L30.8206 85.6662C31.0236 85.5485 31.1913 85.6339 31.1913 85.8545C31.1817 85.9784 31.1431 86.0983 31.0787 86.2046C31.0144 86.3109 30.9259 86.4006 30.8206 86.4665L10.7647 98.0463C10.5588 98.164 10.394 98.0787 10.394 97.858C10.403 97.734 10.4412 97.6138 10.5057 97.5074C10.5701 97.401 10.6589 97.3114 10.7647 97.2461Z" fill="#007367"/>
<path d="M10.7647 93.195L30.8118 81.6034C31.0148 81.4857 31.1825 81.5681 31.1825 81.7888C31.1728 81.913 31.1343 82.0334 31.0699 82.1401C31.0056 82.2469 30.9172 82.3371 30.8118 82.4036L10.7647 93.9953C10.5588 94.1129 10.394 94.0306 10.394 93.8099C10.4025 93.6853 10.4406 93.5646 10.505 93.4576C10.5695 93.3507 10.6585 93.2607 10.7647 93.195Z" fill="#007367"/>
<path d="M10.7647 95.219L30.8118 83.6273C31.0148 83.5097 31.1825 83.592 31.1825 83.8127C31.1733 83.9371 31.135 84.0576 31.0705 84.1644C31.0061 84.2712 30.9175 84.3614 30.8118 84.4276L10.7647 96.0192C10.5588 96.1369 10.394 96.0545 10.394 95.8338C10.403 95.7094 10.4412 95.5888 10.5057 95.4819C10.5701 95.3751 10.6589 95.285 10.7647 95.219Z" fill="#007367"/>
<path d="M10.7647 91.1705L30.8118 79.5759C31.0148 79.4582 31.1825 79.5435 31.1825 79.7642C31.1728 79.8881 31.1343 80.008 31.0699 80.1143C31.0055 80.2205 30.9171 80.3102 30.8118 80.3761L10.7647 91.9707C10.5588 92.0884 10.394 92.0031 10.394 91.7824C10.403 91.6583 10.4412 91.5382 10.5057 91.4318C10.5701 91.3254 10.6589 91.2358 10.7647 91.1705Z" fill="#007367"/>
<path d="M8.27296 83.9013L6.64602 82.9922C6.57053 82.9359 6.51084 82.8612 6.4727 82.7751C6.43456 82.689 6.41927 82.5946 6.42831 82.5009V52.3097C6.4441 52.0051 6.54613 51.7112 6.72251 51.4624L8.29944 52.3744C8.13901 52.618 8.04845 52.9009 8.0376 53.1923V83.4158C8.02973 83.5104 8.04743 83.6054 8.08884 83.6908C8.13024 83.7762 8.19383 83.8489 8.27296 83.9013Z" fill="#263238"/>
<path d="M32.9859 38.035C32.8433 38.0223 32.7004 38.0575 32.5799 38.135L8.81419 51.8567C8.60615 51.9868 8.43176 52.1642 8.30521 52.3745L6.72534 51.4624C6.84818 51.2651 7.01415 51.0981 7.21078 50.974L30.9765 37.2553C31.0797 37.1897 31.1986 37.1531 31.3208 37.1494C31.3906 37.1489 31.4594 37.1661 31.5208 37.1994L32.9859 38.035Z" fill="#37474F"/>
<path d="M8.81427 51.853L32.58 38.1343C33.0037 37.8872 33.3508 38.0872 33.3508 38.5785V68.8285C33.3358 69.096 33.2582 69.3561 33.1243 69.5881C32.9904 69.8201 32.804 70.0174 32.58 70.1642L8.81427 83.8594C8.38768 84.1036 8.04346 83.9065 8.04346 83.4152V53.1887C8.05806 52.9212 8.13545 52.6609 8.26937 52.4288C8.40328 52.1968 8.58995 51.9995 8.81427 51.853Z" fill="#455A64"/>
<path d="M10.0322 52.7921L31.359 40.4767C31.7415 40.2561 32.0504 40.4355 32.0504 40.8768V68.0142C32.0379 68.2542 31.9688 68.4878 31.8486 68.696C31.7284 68.9041 31.5607 69.0808 31.359 69.2116L10.0322 81.5181C9.64973 81.7388 9.34082 81.5593 9.34082 81.118V53.9895C9.35373 53.7496 9.42307 53.5161 9.54321 53.308C9.66334 53.1 9.83088 52.9232 10.0322 52.7921Z" fill="#F0F0F0"/>
<mask id="mask1_964_4481" style="mask-type:luminance" maskUnits="userSpaceOnUse" x="9" y="40" width="24" height="42">
<path d="M10.0322 52.7921L31.359 40.4767C31.7415 40.2561 32.0504 40.4355 32.0504 40.8768V68.0142C32.0379 68.2542 31.9688 68.4878 31.8486 68.696C31.7284 68.9041 31.5607 69.0808 31.359 69.2116L10.0322 81.5181C9.64973 81.7388 9.34082 81.5593 9.34082 81.118V53.9895C9.35373 53.7496 9.42307 53.5161 9.54321 53.308C9.66334 53.1 9.83088 52.9232 10.0322 52.7921Z" fill="white"/>
</mask>
<g mask="url(#mask1_964_4481)">
<path d="M27.1577 64.1159C25.4925 61.9535 22.7446 62.2595 22.7446 62.2595C22.9869 64.1394 23.444 65.9853 24.1068 67.7611C24.1068 67.7611 29.1847 75.1545 30.1968 75.8458L31.6002 71.1886C31.6002 71.1886 28.2374 65.5222 27.1577 64.1159Z" fill="#FFBDA7"/>
<path d="M22.1504 62.3656C22.8701 62.1344 23.6255 62.0348 24.3805 62.0713C25.5779 62.1478 27.0518 63.5041 27.9315 64.9163C29.1083 66.8051 29.8909 68.1525 29.8909 68.1525C29.8909 68.1525 29.4996 70.3708 26.4722 71.327L23.6714 67.673L22.1504 62.3656Z" fill="#007367"/>
<path opacity="0.5" d="M22.1504 62.3656C22.8701 62.1344 23.6255 62.0348 24.3805 62.0713C25.5779 62.1478 27.0518 63.5041 27.9315 64.9163C29.1083 66.8051 29.8909 68.1525 29.8909 68.1525C29.8909 68.1525 29.4996 70.3708 26.4722 71.327L23.6714 67.673L22.1504 62.3656Z" fill="black"/>
<path d="M14.4247 71.0329L14.0334 77.2111L14.3482 88.7704C18.2406 90.0972 23.192 88.9293 27.3462 84.3132C27.3462 84.3132 27.1755 68.9617 26.6342 66.3403C25.984 63.1835 24.4335 61.4565 21.2914 62.5804L18.2111 63.8102L15.0426 65.0723C15.0426 65.0723 14.4247 69.8384 14.4247 71.0329Z" fill="#007367"/>
<path opacity="0.4" d="M14.4247 71.0329L14.0334 77.2111L14.3482 88.7704C18.2406 90.0972 23.192 88.9293 27.3462 84.3132C27.3462 84.3132 27.1755 68.9617 26.6342 66.3403C25.984 63.1835 24.4335 61.4565 21.2914 62.5804L18.2111 63.8102L15.0426 65.0723C15.0426 65.0723 14.4247 69.8384 14.4247 71.0329Z" fill="black"/>
<path d="M18.4905 53.8046C18.4905 56.423 20.3293 58.0529 22.6093 57.4439C24.8894 56.8349 26.7282 54.2223 26.7282 51.6039C26.7282 48.9855 24.7717 48.9855 22.5034 49.5945C20.2351 50.2035 18.4905 51.1862 18.4905 53.8046Z" fill="#263238"/>
<path d="M17.8256 59.2824L17.1372 58.4851L17.4167 57.3377L16.8283 52.8041C16.5891 52.7641 16.3433 52.802 16.1272 52.9121C15.9111 53.0223 15.7361 53.1989 15.6279 53.416C14.6424 55.2048 16.9401 60.7034 17.1372 61.0859C17.2098 61.2241 17.316 61.3419 17.4461 61.4283C17.5762 61.5147 17.7259 61.5669 17.8815 61.5801L17.8256 59.2824Z" fill="#263238"/>
<path d="M17.7463 57.2464C17.5197 57.4671 17.1932 57.0464 16.9107 56.7816C16.6283 56.5168 15.7104 56.2991 15.2514 57.5377C14.7925 58.7763 15.6545 60.0708 16.3782 60.1384C17.6286 60.2561 17.8139 59.2823 17.8139 59.2823L17.8581 64.6074C19.9499 66.8286 24.7689 65.743 21.9769 63.2276V61.6477C22.5497 61.598 23.1146 61.4804 23.6598 61.2976C24.5777 60.8857 25.1543 59.8972 25.425 58.6733C25.8722 56.7139 26.0428 55.1811 25.6633 51.6595C25.2455 47.7995 21.2502 48.8292 19.0849 50.9769C16.9196 53.1246 17.7463 57.2464 17.7463 57.2464Z" fill="#FFBDA7"/>
<path d="M17.7051 57.6198C17.3226 57.5198 17.0725 56.9078 16.9107 56.7813C16.7489 56.6548 16.7754 56.3312 16.7695 56.1694C16.7834 55.772 16.7736 55.3741 16.7401 54.9779C16.6582 54.5609 16.6129 54.1376 16.6047 53.7128C16.6047 52.8302 16.6253 51.6004 16.9872 50.7855C17.655 49.2821 18.6965 48.9026 19.9528 48.4995C20.9178 48.2053 21.974 48.2347 22.9213 47.8758C23.6962 47.5287 24.4058 47.051 25.019 46.4636C25.2514 46.2665 25.575 46.0605 25.831 46.2224C25.9521 46.3168 26.0356 46.4514 26.0663 46.6019C26.2065 47.0546 26.2496 47.5318 26.1928 48.0023C26.3023 48.0103 26.4122 47.9932 26.5142 47.9524C26.6161 47.9117 26.7074 47.8482 26.7812 47.7669C26.8254 47.714 26.8724 47.6522 26.9401 47.6522C27.0078 47.6522 27.0813 47.761 27.096 47.8522C27.1515 48.2472 27.1163 48.6497 26.9931 49.0291C26.4517 50.9237 24.5688 52.0711 22.6477 52.5124C21.5723 52.8067 20.4433 52.847 19.3497 52.6301C19.2182 52.6022 19.0811 52.6265 18.9672 52.6978C18.8696 52.772 18.7976 52.8749 18.7612 52.992C18.5524 53.5304 18.7612 54.6307 18.7083 55.3721C18.6289 56.2753 18.4906 57.0402 18.1493 57.4668C18.1028 57.5381 18.0339 57.5919 17.9534 57.6196C17.873 57.6473 17.7856 57.6474 17.7051 57.6198Z" fill="#263238"/>
<path d="M16.7077 52.8804L15.3279 52.392C15.5221 51.883 15.9898 51.58 16.3723 51.7154C16.7548 51.8507 16.9048 52.3685 16.7077 52.8804Z" fill="#263238"/>
<path d="M21.9652 61.6474C21.9652 61.6474 19.9058 61.721 19.2026 61.4709C18.773 61.3211 18.4179 61.0113 18.2112 60.606C18.3117 61.0341 18.5033 61.4355 18.7731 61.7828C19.2968 62.4153 21.9652 62.2711 21.9652 62.2711V61.6474Z" fill="#F0997A"/>
<path d="M21.4739 56.0576C21.4736 56.1857 21.4344 56.3106 21.3613 56.4157C21.2882 56.5208 21.1849 56.6012 21.065 56.6461C20.8355 56.7049 20.6531 56.5343 20.6531 56.2606C20.654 56.1324 20.6938 56.0074 20.7674 55.9023C20.841 55.7972 20.9447 55.717 21.065 55.6722C21.2915 55.6134 21.4739 55.784 21.4739 56.0576Z" fill="#263238"/>
<path d="M20.8148 54.2718L19.9322 55.0662C19.8745 54.9186 19.8634 54.757 19.9002 54.6029C19.937 54.4488 20.02 54.3097 20.1382 54.2042C20.1801 54.1509 20.2348 54.109 20.2971 54.0825C20.3595 54.0559 20.4276 54.0455 20.4951 54.0523C20.5625 54.059 20.6272 54.0827 20.6831 54.1211C20.739 54.1594 20.7843 54.2113 20.8148 54.2718Z" fill="#263238"/>
<path d="M21.7797 58.835L22.7182 58.9909C22.69 59.1394 22.6108 59.2734 22.4942 59.3696C22.3775 59.4658 22.2309 59.5181 22.0798 59.5175C21.8238 59.4822 21.6885 59.1704 21.7797 58.835Z" fill="#F0997A"/>
<path d="M25.2397 53.501L24.4395 53.0097C24.6013 52.7155 24.9131 52.5625 25.1338 52.7155C25.2418 52.8126 25.3117 52.9449 25.3311 53.0888C25.3505 53.2327 25.3181 53.3788 25.2397 53.501Z" fill="#263238"/>
<path d="M25.066 54.9572C25.0652 55.0855 25.0253 55.2105 24.9517 55.3155C24.8782 55.4206 24.7744 55.5009 24.6542 55.5456C24.4276 55.6074 24.2452 55.4338 24.2452 55.1631C24.2429 55.0327 24.2809 54.9048 24.3541 54.7968C24.4273 54.6888 24.5321 54.6061 24.6542 54.56C24.8866 54.513 25.066 54.6836 25.066 54.9572Z" fill="#263238"/>
<path d="M22.8594 54.981L22.9064 57.8436L24.3775 57.0727L22.8594 54.981Z" fill="#F0997A"/>
<path d="M9.55265 82.9803C10.8471 69.1704 12.6065 65.7959 15.1425 65.4487C16.1369 66.1901 16.4517 69.3616 15.7486 72.6508C15.7486 72.6508 14.3129 80.0971 14.1864 82.7773C14.0746 85.1309 13.4244 88.0141 13.7127 89.8676C13.7656 90.1942 13.9363 91.1474 14.1128 91.3681C14.7012 92.0918 14.5571 92.4272 14.9954 92.9921C15.3485 93.4334 15.9339 93.6981 15.878 93.8747C15.7927 94.0865 15.4073 94.3601 14.7954 94.0777C14.4395 93.8868 14.1363 93.6109 13.9127 93.2745C13.9127 93.2745 13.9775 94.1571 14.7954 95.4987C15.5632 96.7843 15.7898 98.1259 13.6509 97.8788C12.4417 97.7405 11.5532 97.3992 10.7707 94.2807C10.5529 93.4187 10.3764 91.8535 10.2058 90.7267C9.7027 87.4757 9.37319 84.8809 9.55265 82.9803Z" fill="#FFBDA7"/>
<path d="M15.1779 65.0278C15.1779 65.0278 12.6154 65.5309 11.9005 67.914C11.3121 69.9263 10.8237 71.7386 10.1882 75.9634C10.8555 76.5736 11.6834 76.9804 12.5742 77.1358C13.465 77.2911 14.3817 77.1885 15.2162 76.8401C15.2162 76.8401 16.5695 71.3297 16.7048 68.8525C16.8519 66.1399 15.1779 65.0278 15.1779 65.0278Z" fill="#007367"/>
<path opacity="0.5" d="M15.1779 65.0278C15.1779 65.0278 12.6154 65.5309 11.9005 67.914C11.3121 69.9263 10.8237 71.7386 10.1882 75.9634C10.8555 76.5736 11.6834 76.9804 12.5742 77.1358C13.465 77.2911 14.3817 77.1885 15.2162 76.8401C15.2162 76.8401 16.5695 71.3297 16.7048 68.8525C16.8519 66.1399 15.1779 65.0278 15.1779 65.0278Z" fill="black"/>
</g>
<path d="M40.6266 82.3977L38.9232 81.4238C38.8483 81.367 38.7891 81.2922 38.751 81.2062C38.713 81.1203 38.6973 81.0261 38.7055 80.9325V69.5851C38.7224 69.2807 38.8243 68.9872 38.9997 68.7378L40.6943 69.7146C40.5255 69.9636 40.4307 70.2553 40.4207 70.556V81.9005C40.4075 81.9942 40.4196 82.0897 40.4558 82.1772C40.492 82.2646 40.551 82.3408 40.6266 82.3977Z" fill="#007367"/>
<path opacity="0.55" d="M40.6266 82.3977L38.9232 81.4238C38.8483 81.367 38.7891 81.2922 38.751 81.2062C38.713 81.1203 38.6973 81.0261 38.7055 80.9325V69.5851C38.7224 69.2807 38.8243 68.9872 38.9997 68.7378L40.6943 69.7146C40.5255 69.9636 40.4307 70.2553 40.4207 70.556V81.9005C40.4075 81.9942 40.4196 82.0897 40.4558 82.1772C40.492 82.2646 40.551 82.3408 40.6266 82.3977Z" fill="white"/>
<path d="M41.1707 69.2202L64.9335 55.4986C65.3601 55.2514 65.7043 55.4515 65.7043 55.9428V67.3167C65.6902 67.5839 65.613 67.844 65.479 68.0757C65.3451 68.3073 65.1581 68.5039 64.9335 68.6495L41.1707 82.3476C40.7441 82.5918 40.3999 82.3917 40.3999 81.9004V70.553C40.414 70.2857 40.4912 70.0256 40.6252 69.794C40.7592 69.5623 40.9461 69.3657 41.1707 69.2202Z" fill="#007367"/>
<path opacity="0.7" d="M41.1707 69.2202L64.9335 55.4986C65.3601 55.2514 65.7043 55.4515 65.7043 55.9428V67.3167C65.6902 67.5839 65.613 67.844 65.479 68.0757C65.3451 68.3073 65.1581 68.5039 64.9335 68.6495L41.1707 82.3476C40.7441 82.5918 40.3999 82.3917 40.3999 81.9004V70.553C40.414 70.2857 40.4912 70.0256 40.6252 69.794C40.7592 69.5623 40.9461 69.3657 41.1707 69.2202Z" fill="white"/>
<path d="M63.7745 54.4807L65.4514 55.4369C65.3661 55.4051 65.2744 55.3947 65.1842 55.4065C65.0939 55.4183 65.0079 55.452 64.9336 55.5045L41.1679 69.2203C40.9671 69.3445 40.7979 69.5137 40.6736 69.7146L38.979 68.7378C39.0999 68.5389 39.2663 68.3715 39.4644 68.2494L63.2302 54.5278C63.335 54.4639 63.4547 54.4284 63.5774 54.4248C63.6469 54.4256 63.7149 54.4449 63.7745 54.4807Z" fill="#007367"/>
<path opacity="0.85" d="M63.7745 54.4807L65.4514 55.4369C65.3661 55.4051 65.2744 55.3947 65.1842 55.4065C65.0939 55.4183 65.0079 55.452 64.9336 55.5045L41.1679 69.2203C40.9671 69.3445 40.7979 69.5137 40.6736 69.7146L38.979 68.7378C39.0999 68.5389 39.2663 68.3715 39.4644 68.2494L63.2302 54.5278C63.335 54.4639 63.4547 54.4284 63.5774 54.4248C63.6469 54.4256 63.7149 54.4449 63.7745 54.4807Z" fill="white"/>
<path d="M43.0272 70.2678L63.0771 58.6762C63.2801 58.5585 63.4449 58.6409 63.4449 58.8615C63.4363 58.9857 63.3985 59.1061 63.3346 59.213C63.2707 59.3198 63.1825 59.4101 63.0771 59.4764L43.0272 71.068C42.8242 71.1857 42.6594 71.1033 42.6594 70.8827C42.6685 70.7586 42.7065 70.6384 42.7703 70.5316C42.8342 70.4248 42.9222 70.3345 43.0272 70.2678Z" fill="#007367"/>
<path d="M43.0272 78.3697L63.0771 66.7751C63.2801 66.6574 63.4449 66.7427 63.4449 66.9634C63.4358 67.0871 63.3978 67.2069 63.3339 67.3132C63.2701 67.4195 63.1821 67.5093 63.0771 67.5753L43.0272 79.1699C42.8242 79.2876 42.6594 79.2023 42.6594 78.9816C42.6685 78.8579 42.7065 78.7381 42.7704 78.6318C42.8343 78.5255 42.9222 78.4357 43.0272 78.3697Z" fill="#007367"/>
<path d="M43.0272 74.3186L63.0771 62.7182C63.2801 62.6005 63.4449 62.6829 63.4449 62.9035C63.4358 63.0276 63.3978 63.1478 63.334 63.2546C63.2701 63.3614 63.1822 63.4517 63.0771 63.5184L43.0272 75.11C42.8242 75.2277 42.6594 75.1453 42.6594 74.9217C42.6698 74.7996 42.7085 74.6815 42.7723 74.5769C42.8361 74.4722 42.9234 74.3838 43.0272 74.3186Z" fill="#007367"/>
<path d="M43.0272 76.343L63.0771 64.7514C63.2801 64.6337 63.4449 64.7161 63.4449 64.9367C63.4363 65.0609 63.3985 65.1813 63.3346 65.2882C63.2707 65.395 63.1825 65.4853 63.0771 65.5516L43.0272 77.1344C42.8242 77.2521 42.6594 77.1697 42.6594 76.949C42.6698 76.8265 42.7084 76.708 42.7722 76.6029C42.836 76.4977 42.9233 76.4088 43.0272 76.343Z" fill="#007367"/>
<path d="M43.0272 72.295L63.0771 60.7004C63.2801 60.5827 63.4449 60.668 63.4449 60.8887C63.4358 61.0124 63.3978 61.1322 63.3339 61.2385C63.2701 61.3448 63.1821 61.4346 63.0771 61.5006L43.0272 73.0952C42.8242 73.2129 42.6594 73.1276 42.6594 72.9069C42.6685 72.7832 42.7065 72.6634 42.7704 72.5571C42.8343 72.4508 42.9222 72.361 43.0272 72.295Z" fill="#007367"/>
<path d="M40.5942 65.3955L38.979 64.4834C38.9035 64.4272 38.8438 64.3524 38.8057 64.2663C38.7676 64.1803 38.7523 64.0858 38.7613 63.9921V33.7921C38.7771 33.4875 38.8791 33.1937 39.0555 32.9448L40.6325 33.8569C40.472 34.1004 40.3815 34.3833 40.3706 34.6747V64.8983C40.3593 64.9936 40.3741 65.0903 40.4135 65.1778C40.4529 65.2654 40.5154 65.3407 40.5942 65.3955Z" fill="#263238"/>
<path d="M65.3072 19.5174C65.1645 19.5047 65.0217 19.5399 64.9012 19.6174L41.1355 33.3391C40.9274 33.4692 40.7531 33.6466 40.6265 33.8569L39.0466 32.9448C39.1695 32.7475 39.3354 32.5805 39.5321 32.4565L63.2978 18.7378C63.4009 18.6721 63.5199 18.6356 63.642 18.6318C63.7119 18.6313 63.7807 18.6485 63.8421 18.6819L65.3072 19.5174Z" fill="#37474F"/>
<path d="M41.1356 33.3395L64.8984 19.6178C65.325 19.3736 65.6692 19.5707 65.6692 20.065V50.315C65.6551 50.5822 65.5779 50.8423 65.4439 51.074C65.3099 51.3056 65.123 51.5022 64.8984 51.6477L41.1326 65.3429C40.709 65.59 40.3618 65.39 40.3618 64.8987V34.6751C40.377 34.4074 40.4549 34.147 40.5893 33.915C40.7237 33.6829 40.9109 33.4858 41.1356 33.3395Z" fill="#455A64"/>
<path d="M42.3564 34.275L63.6862 21.9596C64.0686 21.739 64.3775 21.9184 64.3775 22.3597V49.5118C64.3646 49.7517 64.2953 49.9852 64.1752 50.1932C64.055 50.4013 63.8875 50.5781 63.6862 50.7092L42.3564 63.0128C41.974 63.2334 41.665 63.054 41.665 62.6127V35.4753C41.678 35.235 41.7473 35.0011 41.8674 34.7926C41.9875 34.5841 42.155 34.4067 42.3564 34.275Z" fill="#F0F0F0"/>
<mask id="mask2_964_4481" style="mask-type:luminance" maskUnits="userSpaceOnUse" x="41" y="21" width="24" height="43">
<path d="M42.3564 34.275L63.6862 21.9596C64.0686 21.739 64.3775 21.9184 64.3775 22.3597V49.5118C64.3646 49.7517 64.2953 49.9852 64.1752 50.1932C64.055 50.4013 63.8875 50.5781 63.6862 50.7092L42.3564 63.0128C41.974 63.2334 41.665 63.054 41.665 62.6127V35.4724C41.6782 35.2325 41.7476 34.9992 41.8677 34.7911C41.9878 34.5831 42.1553 34.4063 42.3564 34.275Z" fill="white"/>
</mask>
<g mask="url(#mask2_964_4481)">
<path d="M60.2265 58.4966C57.0697 47.3669 57.0344 45.5517 57.2227 44.2395C60.0882 43.5482 61.3415 45.5134 62.1064 48.8262C62.4742 50.4178 63.5333 56.4755 64.1894 59.0086C64.7778 61.2298 65.4898 63.6128 66.3547 65.1868C66.4249 65.3201 66.5258 65.4347 66.6491 65.5212C66.7724 65.6077 66.9146 65.6635 67.0638 65.684C67.8669 65.7988 68.1052 66.2489 68.7584 66.5843C69.2703 66.8432 69.641 66.7785 69.6263 66.9579C69.5883 67.1576 69.4907 67.341 69.3462 67.4839C69.2017 67.6268 69.0173 67.7224 68.8172 67.7582C68.4954 67.7929 68.1699 67.772 67.8552 67.6964C68.2424 68.2034 68.7166 68.6377 69.2556 68.9791C70.5148 69.7941 70.9061 71.0385 68.726 71.6534C67.8699 71.8917 66.2753 71.6211 64.3777 69.0585C63.7457 68.1411 63.2215 67.1539 62.8155 66.1165C61.7357 63.3834 60.8561 60.7208 60.2265 58.4966Z" fill="#FFA8A7"/>
<path d="M52.5624 45.5195C52.5624 45.5195 49.438 46.6287 48.6318 47.0082C50.6913 49.4795 48.2258 56.2227 48.2258 56.2227L49.5409 60.7652L59.4262 57.3024C61.0619 53.1835 61.3826 51.3153 61.2385 50.1856C60.9119 47.626 59.382 45.9461 57.2226 44.2397L52.5624 45.5195Z" fill="#007367"/>
<path d="M59.9851 42.7772L54.8306 44.3953C54.0448 44.6422 53.212 44.7008 52.3993 44.5663C51.5867 44.4318 50.8171 44.1081 50.1527 43.6212C49.4883 43.1344 48.9477 42.4981 48.5746 41.7637C48.2016 41.0293 48.0065 40.2175 48.0051 39.3938V38.2994C48.0051 34.6042 50.6 30.9149 53.8009 30.0617L54.2334 29.947C57.4343 29.0879 60.0292 31.3886 60.0292 35.0838V36.1164C60.0292 39.4233 59.9851 42.7772 59.9851 42.7772Z" fill="#37474F"/>
<path d="M50 31.5944C49.6822 31.2825 49.1497 31.4002 48.8084 31.8562L49.4439 32.4858C49.2934 32.468 49.1411 32.4978 49.0085 32.5711C48.7783 32.7004 48.5927 32.8964 48.4761 33.1332C48.3595 33.3701 48.3174 33.6367 48.3554 33.898L50.0059 33.0536C49.9972 33.0158 49.9864 32.9784 49.9735 32.9418C50.2854 32.4887 50.3059 31.8974 50 31.5944Z" fill="#37474F"/>
<path d="M57.7727 32.8271C58.3611 33.2126 59.1849 33.9039 59.1084 37.7904C59.0437 41.0825 58.1228 42.1387 57.6609 42.4976C57.199 42.8565 56.3076 42.9507 55.4426 43.0154V45.0925C55.4426 45.0925 56.9401 46.5106 56.8636 47.4461C56.7872 48.3817 55.4426 49.1496 53.4126 47.9051C52.6979 47.4286 52.0955 46.8021 51.6474 46.0692L51.6651 41.6268C51.6651 41.6268 51.1561 42.3329 50.2941 41.6915C49.9301 41.4031 49.6872 40.989 49.6132 40.5306C49.5391 40.0721 49.6393 39.6026 49.894 39.2143C50.0054 39.0414 50.1526 38.8945 50.3257 38.7833C50.4988 38.6722 50.6936 38.5994 50.8972 38.57C51.0165 38.5644 51.1357 38.5831 51.2476 38.625C51.3595 38.6668 51.4617 38.731 51.5481 38.8135C51.6345 38.896 51.7032 38.9952 51.7501 39.1051C51.797 39.2149 51.8211 39.3332 51.821 39.4526V39.6968C51.821 39.6968 52.4506 39.7939 52.4918 38.5641C52.5153 37.8816 53.3303 36.7989 54.1276 36.1163C55.4838 34.9484 57.2108 34.9336 57.7727 32.8271Z" fill="#FFA8A7"/>
<path d="M55.581 37.5872C55.5862 37.7004 55.5566 37.8124 55.4961 37.9082C55.4356 38.0039 55.3471 38.0788 55.2427 38.1227C55.0456 38.1874 54.8779 38.0491 54.869 37.8285C54.8636 37.7149 54.8932 37.6024 54.9537 37.5061C55.0141 37.4099 55.1027 37.3345 55.2074 37.2901C55.4015 37.2165 55.5722 37.3519 55.581 37.5872Z" fill="#263238"/>
<path d="M55.8192 40.4087L56.8695 40.5146C56.8435 40.6806 56.7611 40.8325 56.6363 40.945C56.5115 41.0575 56.3518 41.1237 56.1841 41.1324C55.8957 41.103 55.731 40.7794 55.8192 40.4087Z" fill="#F28F8F"/>
<path d="M58.67 35.7987L57.9492 35.4133C58.0787 35.1397 58.3493 35.0043 58.5376 35.1191C58.6402 35.1956 58.7106 35.3076 58.7351 35.4333C58.7596 35.559 58.7364 35.6892 58.67 35.7987Z" fill="#263238"/>
<path d="M54.56 36.8664L55.2808 36.0927C55.1485 35.8926 54.8807 35.8985 54.6924 36.1133C54.594 36.209 54.5283 36.3333 54.5045 36.4685C54.4807 36.6037 54.5002 36.7429 54.56 36.8664Z" fill="#263238"/>
<path d="M58.5848 36.9726C58.591 37.0863 58.5619 37.1992 58.5013 37.2956C58.4407 37.3921 58.3516 37.4673 58.2464 37.511C58.0493 37.5757 57.8816 37.4374 57.8728 37.2168C57.867 37.1031 57.8963 36.9905 57.9569 36.8941C58.0174 36.7978 58.1062 36.7224 58.2111 36.6784C58.4053 36.6019 58.5759 36.7402 58.5848 36.9726Z" fill="#263238"/>
<path d="M56.8696 37.0903L56.9255 39.5558L58.0553 38.8497L56.8696 37.0903Z" fill="#F28F8F"/>
<path d="M55.4426 43.0067C54.5306 43.1127 52.6536 43.0067 52.3594 42.2153C52.4623 42.5902 52.6961 42.9158 53.0184 43.1332C53.5803 43.5363 55.4426 43.6628 55.4426 43.6628V43.0067Z" fill="#F28F8F"/>
<path d="M43.248 64.7954C44.2218 54.1599 44.7778 48.167 48.6319 47.0078C49.2056 47.2167 49.7381 48.4788 49.8381 49.3938C50.0117 50.9413 49.8028 53.6127 48.8437 54.9837C48.8437 54.9837 47.6345 61.3561 47.1667 65.0248C46.8431 67.5638 46.1459 71.2208 46.3077 73.2802C46.3843 73.6523 46.5476 74.001 46.7843 74.2981L47.4374 75.3837C47.566 75.6115 47.7137 75.828 47.8787 76.031C48.0288 76.2046 48.2023 76.3546 48.3642 76.5164C48.4848 76.6341 48.6025 76.8106 48.5024 76.9518C48.4636 76.9976 48.4126 77.0312 48.3553 77.0489C48.1637 77.1214 47.9579 77.149 47.7539 77.1296C47.5499 77.1103 47.3531 77.0444 47.1785 76.9371C46.9608 76.8018 46.7843 76.6047 46.5577 76.487C46.5765 76.8666 46.6843 77.2365 46.8725 77.5667C47.002 77.8345 47.1314 78.1051 47.2756 78.3699C47.431 78.635 47.5686 78.9102 47.6875 79.1937C47.8097 79.4774 47.8396 79.7923 47.7728 80.0939C47.6979 80.3241 47.5602 80.5287 47.3751 80.6847C47.19 80.8407 46.965 80.9418 46.7254 80.9765C46.2442 81.0383 45.7559 80.9423 45.3339 80.7029C43.8834 79.9527 43.398 78.4464 43.2156 76.9342C43.0385 75.6765 42.9402 74.4089 42.9214 73.139C42.9773 69.7792 43.0597 66.8665 43.248 64.7954Z" fill="#FFA8A7"/>
<path d="M51.6593 45.7637C51.0315 45.8979 50.4334 46.1451 49.894 46.4933C49.894 46.4933 51.2827 49.1764 53.6657 49.5648C56.0488 49.9531 56.2194 48.3497 56.2194 48.3497C54.7278 48.4115 53.2215 47.7643 51.6593 45.7637Z" fill="#455A64"/>
<path d="M55.4426 44.6869V45.0929C56.4547 46.4109 56.7636 47.5495 56.2046 48.3497C56.2046 48.3497 57.8727 48.9175 58.1669 47.6936C58.4612 46.4697 56.3429 44.4868 56.3429 44.4868C56.0346 44.5092 55.7313 44.5766 55.4426 44.6869Z" fill="#455A64"/>
</g>
<path d="M33.7127 12.7682L31.9475 13.7891C31.9567 13.711 31.9616 13.6324 31.9622 13.5537V13.0447C31.9622 12.1327 31.3238 11.765 30.5353 12.218C30.1947 12.4265 29.9036 12.7066 29.6821 13.0389C29.5556 11.8915 28.6553 11.4678 27.5668 12.0974C26.9444 12.5018 26.4265 13.0476 26.0553 13.6903C25.6841 14.333 25.4701 15.0544 25.4309 15.7955V16.5605C25.4234 16.8644 25.4848 17.1662 25.6103 17.4431L24.1393 18.2904C23.9092 18.4412 23.7176 18.6437 23.5797 18.8817C23.4418 19.1198 23.3614 19.3868 23.345 19.6614C23.345 20.1674 23.701 20.3733 24.1393 20.1203L33.7127 14.5981C33.9422 14.447 34.1333 14.2443 34.2707 14.0063C34.4081 13.7683 34.488 13.5015 34.5041 13.2271C34.5071 12.7211 34.154 12.5181 33.7127 12.7682Z" fill="#EBEBEB"/>
<path d="M22.0446 8.07879L21.0619 8.45242V6.30768C21.0619 4.60718 19.7057 4.19824 18.2346 5.04849C16.7636 5.90168 15.5662 7.96993 15.5662 9.67043V9.98228C15.3589 9.91735 15.1394 9.90082 14.9247 9.93398C14.71 9.96713 14.5057 10.0491 14.3276 10.1735C13.7689 10.5377 13.304 11.0286 12.9707 11.6063C12.6374 12.1839 12.4451 12.8321 12.4094 13.498V13.6392L11.059 14.4218C10.691 14.6616 10.3846 14.9847 10.1648 15.365C9.94505 15.7453 9.81798 16.1721 9.79395 16.6107C9.79395 17.4168 10.3618 17.7434 11.059 17.3403L22.0446 10.9973C22.4122 10.7574 22.7181 10.4341 22.9374 10.0538C23.1567 9.67347 23.2832 9.2468 23.3067 8.80841C23.3067 7.99641 22.7418 7.67573 22.0446 8.07879Z" fill="#EBEBEB"/>
<path d="M83.3419 69.4847C82.9271 69.1434 82.2887 69.0728 81.5238 69.3582C79.991 69.926 78.5258 71.6942 78.2493 73.3034C78.111 74.1096 78.2993 74.7245 78.7112 75.0687L106.822 100.258C107.393 100.797 108.317 100.929 109.441 100.514C111.583 99.72 113.633 97.2516 114.016 94.998C114.219 93.8212 113.919 92.9386 113.28 92.4708L83.3419 69.4847Z" fill="#007367"/>
<path opacity="0.15" d="M82.6375 73.6061C83.9156 72.0655 84.23 70.2177 83.3396 69.4791C82.4493 68.7404 80.6913 69.3905 79.4132 70.9311C78.135 72.4718 77.8207 74.3195 78.711 75.0582C79.6014 75.7969 81.3593 75.1467 82.6375 73.6061Z" fill="black"/>
<path d="M72.7565 63.398C72.262 63.6115 71.8252 63.939 71.4815 64.3537C71.1379 64.7683 70.8973 65.2585 70.7794 65.784C70.7268 65.9701 70.7246 66.1668 70.7732 66.354C70.8218 66.5412 70.9194 66.712 71.056 66.849L79.6261 73.9599C79.7854 74.0697 79.9711 74.135 80.164 74.1489C80.3569 74.1629 80.5501 74.125 80.7235 74.0393C81.2181 73.8256 81.6552 73.4981 81.9993 73.0835C82.3433 72.6688 82.5846 72.1788 82.7035 71.6533C82.7563 71.4666 82.7583 71.2691 82.7092 71.0813C82.66 70.8935 82.5616 70.7223 82.424 70.5854L73.8568 63.4774C73.6971 63.3673 73.5109 63.3019 73.3174 63.288C73.124 63.274 72.9303 63.312 72.7565 63.398Z" fill="#263238"/>
<path opacity="0.1" d="M81.8885 74.3599L110.909 99.6908C110.457 100.026 109.962 100.299 109.438 100.503C108.314 100.918 107.378 100.797 106.816 100.244L78.7258 75.0748C79.1436 75.419 79.7761 75.4837 80.544 75.2013C81.0365 74.9989 81.4912 74.7144 81.8885 74.3599Z" fill="black"/>
<path d="M87.7843 35.9457C87.7843 35.6515 87.7608 35.3573 87.7373 35.063C87.7137 34.7688 87.702 34.4893 87.6725 34.2069C87.6725 34.0157 87.6372 33.8303 87.6137 33.6391C87.5637 33.1478 87.4931 32.6594 87.4107 32.1975C87.3754 31.9857 87.3372 31.7709 87.296 31.5591C87.2548 31.3473 87.2136 31.159 87.1724 30.9707C87.0488 30.4352 86.9164 29.9115 86.7664 29.4085C86.687 29.1702 86.6134 28.9318 86.534 28.6994C86.5182 28.6645 86.5064 28.628 86.4987 28.5906C86.4134 28.3581 86.331 28.1346 86.2427 27.9139C86.1545 27.6932 86.0427 27.4079 85.925 27.1666C85.8426 26.9872 85.7661 26.8136 85.672 26.64C85.6187 26.5099 85.5558 26.3841 85.4837 26.2634C85.4109 26.1085 85.3303 25.9573 85.2424 25.8103C85.2252 25.7756 85.2056 25.7422 85.1836 25.7103C85.113 25.5809 85.0306 25.4485 84.9541 25.319C84.8776 25.1896 84.8453 25.1543 84.7952 25.0719C84.4248 24.4854 84.0066 23.9304 83.5449 23.4126C83.4654 23.3243 83.386 23.2361 83.3154 23.1507L83.1183 22.9448C83.0388 22.8595 82.9506 22.78 82.8623 22.6918C82.625 22.4514 82.3735 22.2254 82.1092 22.0151C81.9856 21.9092 81.8561 21.8092 81.7238 21.7209C81.5914 21.6327 81.4649 21.5267 81.3266 21.4267C81.119 21.2742 80.9029 21.1338 80.6793 21.006L80.5057 20.8971L80.4704 20.8677L76.4134 18.4847L76.3545 18.4494C74.3765 17.3476 72.143 16.7864 69.8791 16.8224C66.5105 16.8224 62.7123 17.9257 58.6847 20.244C44.8571 28.2316 33.645 47.652 33.645 63.6243C33.645 71.5914 36.4311 77.193 40.9354 79.8055L40.9766 79.8261L45.0395 82.2033L45.0866 82.2298L45.1454 82.2621L45.2102 82.2974C45.4043 82.4092 45.5985 82.5122 45.7986 82.6093C45.9986 82.7064 46.2987 82.8417 46.5517 82.9388C46.777 83.0376 47.0078 83.1231 47.2431 83.1947C47.3626 83.2377 47.4844 83.2741 47.6079 83.3036C47.7381 83.353 47.8718 83.3924 48.008 83.4213C48.1416 83.4615 48.2771 83.4949 48.414 83.5213C48.5105 83.5496 48.6088 83.5712 48.7082 83.586C48.8818 83.6213 49.0701 83.6596 49.2525 83.6831C49.2926 83.6957 49.3341 83.7026 49.3761 83.7037C49.5908 83.739 49.8115 83.7714 50.0263 83.792C53.7568 84.1833 58.0933 83.13 62.7359 80.4528C76.5634 72.4681 87.7873 53.0389 87.7873 37.0725C87.8049 36.7018 87.7961 36.3252 87.7843 35.9457ZM42.1475 73.6331C41.5684 71.4968 41.2833 69.2916 41.3002 67.0783C41.3002 51.9444 52.374 32.7594 65.4808 25.1925C67.3946 24.0592 69.46 23.2043 71.6149 22.6535C72.648 22.3981 73.7075 22.2647 74.7717 22.2564C75.3077 22.2539 75.843 22.2952 76.3722 22.3799H76.4163C79.0995 25.5544 79.4937 30.6382 79.4937 33.3567C79.4937 48.4905 68.4316 67.6755 55.319 75.2395C51.9827 77.1636 48.7759 78.1815 46.0251 78.1815C45.4542 78.1854 44.8853 78.1132 44.3334 77.9667C43.316 76.687 42.572 75.212 42.1475 73.6331Z" fill="#007367"/>
<path opacity="0.15" d="M84.2039 36.0137C84.2039 44.0543 81.0795 53.2335 76.184 61.2123C75.9545 61.5918 75.7191 61.9625 75.4779 62.3361C75.2749 62.6568 75.066 62.9775 74.8483 63.2952C74.3893 63.9778 73.9245 64.6515 73.4361 65.3105C73.2066 65.6253 72.9742 65.9372 72.7359 66.2431C72.4976 66.5491 72.2181 66.9169 71.9533 67.2493C71.4502 67.8848 70.9295 68.5026 70.3999 69.1057C70.0528 69.5088 69.6968 69.903 69.3378 70.2826C66.4546 73.3835 63.3037 76.0019 60.0263 77.8907C59.3996 78.2525 58.7818 78.582 58.1669 78.8792C56.1735 79.8918 54.0138 80.5366 51.7915 80.7827C51.4326 80.818 51.0796 80.8327 50.7383 80.8327C50.5559 80.8327 50.3823 80.8327 50.2087 80.818H50.1881C49.8549 80.8038 49.5228 80.7694 49.1937 80.715C49.0319 80.6915 48.873 80.665 48.7201 80.6297C48.5663 80.6001 48.4141 80.5628 48.264 80.5179C46.7118 80.1237 45.3319 79.2306 44.3364 77.976C44.8873 78.1224 45.4552 78.1946 46.0252 78.1907C48.776 78.1907 51.9828 77.1757 55.319 75.2487C68.4317 67.6847 79.4937 48.4997 79.4937 33.3659C79.4937 30.6475 79.0995 25.5636 76.4164 22.3892H76.3722C79.7909 22.9364 81.7356 25.2606 82.83 27.9467C83.1404 28.7104 83.3903 29.4974 83.5773 30.3003C83.5773 30.3444 83.5979 30.3886 83.6067 30.4327C83.642 30.5768 83.6773 30.7269 83.7038 30.8681C83.7303 31.0093 83.7597 31.1623 83.7862 31.2918C83.795 31.3276 83.8019 31.364 83.8068 31.4006C83.8362 31.5536 83.8627 31.7036 83.8862 31.8507C83.9715 32.4127 84.0421 32.9599 84.0892 33.4836C84.0892 33.6366 84.1157 33.7778 84.1245 33.9249C84.1333 34.072 84.1422 34.1455 84.148 34.2514C84.148 34.2956 84.148 34.3426 84.148 34.3868C84.148 34.5045 84.1628 34.6192 84.1686 34.7339C84.1686 34.7663 84.1686 34.7957 84.1686 34.831C84.1686 34.9752 84.1686 35.1252 84.1833 35.2576C84.201 35.5106 84.2039 35.7695 84.2039 36.0137Z" fill="black"/>
<path opacity="0.1" d="M44.6924 82.0181L40.9325 79.8086C36.4282 77.1755 33.6421 71.5709 33.6421 63.6274C33.6421 56.5018 35.8751 48.6966 39.5703 41.5298L43.851 43.9923C40.1528 51.1591 37.7021 58.8848 37.7021 66.0075C37.7021 73.7951 40.3529 79.3202 44.6924 82.0181Z" fill="black"/>
<path opacity="0.4" d="M80.5088 20.897L80.4735 20.8676L76.4193 18.4846H76.4046L76.3487 18.4493C74.3723 17.3488 72.1411 16.7878 69.8792 16.8223C66.5135 16.8223 62.7124 17.9226 58.6847 20.2439C51.0355 24.6569 44.1599 32.6004 39.5615 41.5325L43.8216 44.0391L43.7304 44.2156C48.3347 35.3895 55.1631 27.4077 62.7448 22.6299C69.6085 18.3051 76.1222 18.2462 80.6706 21.0118L80.5088 20.897Z" fill="white"/>
<path opacity="0.3" d="M82.0239 34.7308C82.0239 49.8646 70.9501 69.0496 57.8433 76.6165C55.9295 77.7498 53.8641 78.6047 51.7092 79.1555C50.6761 79.4112 49.6166 79.5445 48.5524 79.5527C47.4591 79.5666 46.3724 79.3812 45.3456 79.0055C43.7186 77.6404 42.736 75.6633 42.1476 73.6333C41.5685 71.497 41.2834 69.2918 41.3003 67.0785C41.3003 51.9446 52.3741 32.7596 65.4809 25.1927C67.3946 24.0594 69.4601 23.2045 71.615 22.6537C72.6481 22.3982 73.7076 22.2649 74.7718 22.2566C75.8648 22.243 76.9513 22.4273 77.9786 22.8008C79.6085 24.1659 80.5911 26.1459 81.1796 28.1759C81.7564 30.3126 82.0405 32.5177 82.0239 34.7308Z" fill="white"/>
<mask id="mask3_964_4481" style="mask-type:luminance" maskUnits="userSpaceOnUse" x="41" y="22" width="39" height="57">
<path d="M55.319 75.2542C68.4317 67.6902 79.4937 48.5052 79.4937 33.3714C79.4937 30.653 79.0995 25.5691 76.4164 22.3947H76.3722C75.843 22.31 75.3077 22.2686 74.7718 22.2711C73.7076 22.2795 72.6481 22.4128 71.615 22.6683C69.4629 23.215 67.3995 24.0649 65.4867 25.1925C52.3799 32.7595 41.3061 51.9445 41.3061 67.0783C41.2893 69.2916 41.5743 71.4969 42.1534 73.6331C42.5851 75.2472 43.3542 76.7513 44.41 78.0462C44.9452 78.1394 45.4877 78.1846 46.031 78.1815C48.776 78.1933 51.9828 77.1783 55.319 75.2542Z" fill="white"/>
</mask>
<g mask="url(#mask3_964_4481)">
<path d="M75.8164 12.8097C75.6095 12.7933 75.4029 12.845 75.228 12.9568L40.3061 33.1156C40.0012 33.3068 39.7452 33.5668 39.5588 33.8746L37.2434 32.536C37.4221 32.245 37.6658 31.9993 37.9554 31.8182L72.8656 11.6652C73.0172 11.5687 73.192 11.5149 73.3716 11.5093C73.4743 11.5085 73.5755 11.5338 73.6658 11.5828L75.8164 12.8097Z" fill="#37474F"/>
<path d="M40.309 33.1126L75.2191 12.9596C75.8428 12.5978 76.3518 12.889 76.3518 13.6128V58.0375C76.3301 58.4301 76.2163 58.8121 76.0195 59.1525C75.8227 59.4929 75.5485 59.7822 75.2191 59.9969L40.309 80.1292C39.6823 80.4881 39.1763 80.1969 39.1763 79.4731V35.0631C39.1991 34.672 39.3135 34.2917 39.5102 33.9529C39.7069 33.6141 39.9805 33.3262 40.309 33.1126Z" fill="#455A64"/>
<path d="M42.1007 34.4895L73.4305 16.3989C73.9894 16.0753 74.4455 16.3371 74.4455 16.9873V56.8695C74.4274 57.2229 74.326 57.5671 74.1496 57.8739C73.9732 58.1806 73.7268 58.4413 73.4305 58.6348L42.0978 76.693C41.5359 77.0166 41.0798 76.7547 41.0798 76.1046V36.24C41.1013 35.8887 41.2048 35.5473 41.3821 35.2433C41.5594 34.9393 41.8055 34.6811 42.1007 34.4895Z" fill="#F0F0F0"/>
<mask id="mask4_964_4481" style="mask-type:luminance" maskUnits="userSpaceOnUse" x="41" y="16" width="34" height="61">
<path d="M42.1007 34.4895L73.4305 16.3989C73.9894 16.0753 74.4455 16.3371 74.4455 16.9873V56.8695C74.4274 57.2229 74.326 57.5671 74.1496 57.8739C73.9732 58.1806 73.7268 58.4413 73.4305 58.6348L42.0978 76.693C41.5359 77.0166 41.0798 76.7547 41.0798 76.1046V36.24C41.1013 35.8887 41.2048 35.5473 41.3821 35.2433C41.5594 34.9393 41.8055 34.6811 42.1007 34.4895Z" fill="white"/>
</mask>
<g mask="url(#mask4_964_4481)">
<path d="M68.3497 70.0732C63.7131 53.7244 63.663 51.0471 63.9366 49.1318C68.1467 48.1168 69.9796 51 71.1093 55.8691C71.6536 58.2227 73.207 67.1136 74.172 70.8264C75.0193 74.0891 76.0814 77.5931 77.3494 79.9232C77.4531 80.1181 77.6015 80.2856 77.7826 80.412C77.9637 80.5383 78.1721 80.6198 78.3909 80.6499C79.5677 80.8176 79.9207 81.4825 80.8828 81.9708C81.6359 82.3562 82.192 82.265 82.1567 82.5239C82.1013 82.818 81.9576 83.0882 81.7447 83.2985C81.5318 83.5087 81.2599 83.6491 80.9651 83.7008C80.5621 83.7714 80.2502 83.7008 79.5559 83.6066C80.1244 84.3538 80.8218 84.9935 81.6153 85.4954C83.4629 86.6928 84.0396 88.5345 80.8357 89.423C79.5795 89.7702 77.2346 89.373 74.4515 85.6131C73.5236 84.2661 72.7536 82.817 72.1567 81.2942C70.568 77.2489 69.2794 73.3389 68.3497 70.0732Z" fill="#FFA8A7"/>
<path d="M57.0963 51.0059C57.0963 51.0059 52.5067 52.6358 51.3181 53.1948C54.3249 56.8223 50.7297 66.7282 50.7297 66.7282L52.6627 73.4037C50.5826 77.0341 66.8874 70.2939 67.1845 68.3139C69.5852 62.2445 70.053 59.5202 69.8324 57.8609C69.3558 54.101 67.108 51.6326 63.9483 49.126L57.0963 51.0059Z" fill="#007367"/>
<path d="M52.6567 73.4041C56.5755 73.3011 65.4105 69.9178 67.1786 68.3144C69.5793 62.245 70.0471 59.5206 69.8265 57.8613" fill="#007367"/>
<path d="M67.9965 46.9756L60.4266 49.3528C59.2716 49.7157 58.0474 49.8017 56.853 49.6038C55.6586 49.4058 54.5276 48.9296 53.5514 48.2135C52.5752 47.4974 51.7813 46.5616 51.2339 45.4817C50.6864 44.4019 50.4008 43.2084 50.4001 41.9977V40.4178C50.4001 34.9898 54.2101 29.5676 58.9115 28.3084L59.5469 28.1378C64.2542 26.8757 68.0612 30.2561 68.0612 35.6871V37.2022C68.0612 42.0507 67.9965 46.9756 67.9965 46.9756Z" fill="#37474F"/>
<path d="M53.3275 30.5502C52.8656 30.0942 52.0801 30.256 51.577 30.9356L52.5126 31.8594C52.2909 31.8358 52.0673 31.8799 51.8712 31.9859C51.5327 32.1756 51.26 32.4638 51.0893 32.8122C50.9185 33.1606 50.8577 33.5527 50.915 33.9365L53.3393 32.6979C53.3265 32.6409 53.3098 32.5848 53.2892 32.5302C53.7511 31.8653 53.7776 30.9944 53.3275 30.5502Z" fill="#37474F"/>
<path d="M64.7456 32.3657C65.6282 32.9277 66.8227 33.9427 66.7079 39.6531C66.6138 44.4898 65.2605 46.0432 64.5838 46.5669C63.9071 47.0906 62.595 47.2318 61.324 47.3289V50.3798C61.324 50.3798 63.5217 52.4657 63.4129 53.819C63.304 55.1724 61.324 56.3198 58.3437 54.4928C57.2975 53.7915 56.4153 52.8722 55.7577 51.7979L55.7842 45.2695C55.7842 45.2695 55.0369 46.311 53.7689 45.3695C53.2341 44.9452 52.8773 44.3364 52.7684 43.6625C52.6596 42.9886 52.8065 42.2984 53.1805 41.7273C53.3435 41.4735 53.5592 41.2578 53.8131 41.0948C54.0669 40.9318 54.3529 40.8255 54.6515 40.7829C54.8277 40.7723 55.0043 40.7983 55.17 40.8594C55.3356 40.9205 55.4868 41.0152 55.614 41.1377C55.7412 41.2602 55.8416 41.4077 55.9089 41.571C55.9761 41.7342 56.0088 41.9097 56.0048 42.0862V42.4451C56.0048 42.4451 56.9316 42.5893 56.9934 40.7829C57.0287 39.7797 58.2261 38.1939 59.397 37.1877C61.3917 35.4784 63.9218 35.4578 64.7456 32.3657Z" fill="#FFA8A7"/>
<path d="M61.5269 39.3526C61.5352 39.5196 61.492 39.6851 61.403 39.8266C61.3141 39.9682 61.1838 40.079 61.0297 40.144C60.7355 40.2381 60.4943 40.0351 60.4795 39.6909C60.4723 39.5245 60.516 39.3598 60.6048 39.2189C60.6937 39.078 60.8234 38.9676 60.9767 38.9024C61.2651 38.8083 61.5122 39.0113 61.5269 39.3526Z" fill="#263238"/>
<path d="M61.877 43.501L63.4187 43.6569C63.2892 44.2012 62.8303 44.6072 62.4154 44.5631C62.0006 44.5189 61.7476 44.0453 61.877 43.501Z" fill="#F28F8F"/>
<path d="M66.0755 36.7286L65.0164 36.1637C65.2105 35.7606 65.6048 35.5753 65.899 35.7194C66.1932 35.8636 66.2579 36.3255 66.0755 36.7286Z" fill="#263238"/>
<path d="M60.0266 38.2998L61.0857 37.1672C60.8915 36.873 60.4973 36.873 60.2031 37.1936C60.0615 37.3363 59.9682 37.5198 59.9365 37.7183C59.9049 37.9168 59.9364 38.1202 60.0266 38.2998Z" fill="#263238"/>
<path d="M65.94 38.4527C65.9483 38.6197 65.9051 38.7852 65.8161 38.9267C65.7272 39.0683 65.5968 39.1791 65.4428 39.2441C65.1486 39.3353 64.9073 39.1352 64.8926 38.791C64.8853 38.6246 64.9291 38.4599 65.0179 38.319C65.1068 38.1781 65.2365 38.0677 65.3898 38.0025C65.6782 37.9084 65.9253 38.1114 65.94 38.4527Z" fill="#263238"/>
<path d="M63.4187 38.626L63.504 42.2476L65.1633 41.2091L63.4187 38.626Z" fill="#F28F8F"/>
<path d="M61.3239 47.3286C59.9824 47.4845 57.2257 47.308 56.7961 46.1665C56.9479 46.7166 57.2912 47.1945 57.7641 47.514C58.5878 48.1024 61.3239 48.2936 61.3239 48.2936V47.3286Z" fill="#F28F8F"/>
<path d="M43.4217 79.3235C44.8545 63.6984 45.6694 54.9046 51.3299 53.1953C52.1742 53.4895 52.9568 55.3665 53.0951 56.6993C53.3481 58.9705 53.0421 62.8981 51.6241 64.9193C51.6241 64.9193 49.8589 74.2809 49.1616 79.6677C48.685 83.3982 47.6612 88.7733 47.8995 91.7977C47.9465 92.3685 48.3114 92.8128 48.5997 93.2923L49.5588 94.8839C49.7481 95.2195 49.9657 95.5384 50.209 95.8372C50.4267 96.0931 50.6826 96.3138 50.9209 96.5491C51.0975 96.7227 51.271 96.9934 51.1239 97.1905C51.0675 97.2573 50.9929 97.3064 50.9092 97.3317C50.6259 97.4402 50.3215 97.482 50.0195 97.4539C49.7174 97.4258 49.4259 97.3287 49.1675 97.1699C48.8468 96.9698 48.5791 96.6786 48.2525 96.5079C48.2803 97.0649 48.4396 97.6073 48.7174 98.0908C48.9056 98.4879 49.0939 98.8851 49.3058 99.2676C49.5393 99.6534 49.7467 100.054 49.9265 100.468C50.1054 100.886 50.1496 101.35 50.053 101.795C49.9406 102.131 49.737 102.43 49.4648 102.657C49.1926 102.885 48.8625 103.032 48.5114 103.083C47.8039 103.172 47.0867 103.029 46.4667 102.677C44.3396 101.577 43.6276 99.3647 43.357 97.1434C43.1018 95.2956 42.9633 93.4335 42.9421 91.5683C43.0127 86.6521 43.1275 82.3626 43.4217 79.3235Z" fill="#FFA8A7"/>
<path d="M55.7578 51.3652C54.8312 51.5615 53.948 51.9243 53.1511 52.4361C53.1511 52.4361 55.1929 56.3785 58.6939 56.9492C62.1949 57.52 62.4421 55.1634 62.4421 55.1634C60.2738 55.2546 58.0584 54.3073 55.7578 51.3652Z" fill="#455A64"/>
<path d="M61.324 49.7732V50.3616C62.8097 52.2975 63.2657 53.9686 62.4419 55.1454C62.4419 55.1454 64.8956 55.978 65.3251 54.1833C65.7547 52.3887 62.6479 49.4761 62.6479 49.4761C62.1944 49.5099 61.7484 49.61 61.324 49.7732Z" fill="#455A64"/>
</g>
</g>
<path d="M101.847 63.8952C103.886 63.6686 104.669 64.2659 105.428 65.9546C106.152 67.5668 108.37 72.4271 108.258 73.5598C108.146 74.6924 103.51 79.5144 103.51 79.5144L102.189 77.9081L105.054 73.089L102.774 68.2258L101.847 63.8952Z" fill="#FFA8A7"/>
<path d="M97.7522 62.3123L98.1347 66.3135L101.709 66.0899L101.424 61.6533L97.7522 62.3123Z" fill="#FFA8A7"/>
<path d="M93.1714 54.6219C93.1408 54.4339 93.1408 54.2421 93.1714 54.0541C93.2163 53.8108 93.3135 53.5802 93.4562 53.3781C93.5989 53.176 93.7838 53.0074 93.9981 52.8837C94.2123 52.7601 94.4509 52.6844 94.6973 52.662C94.9436 52.6395 95.1919 52.6708 95.425 52.7537C95.3559 52.3863 95.412 52.0064 95.5843 51.6747C95.7565 51.3429 96.035 51.0785 96.3753 50.9238C96.6397 50.8234 96.9216 50.7775 97.2042 50.7886C97.4868 50.7997 97.7642 50.8677 98.0199 50.9885C98.327 51.0963 98.5823 51.3158 98.7348 51.6034C98.9157 51.3002 99.1817 51.0568 99.4996 50.9034C99.8176 50.7499 100.174 50.6932 100.523 50.7402C100.873 50.7872 101.202 50.9358 101.468 51.1677C101.734 51.3996 101.927 51.7045 102.021 52.0447C102.565 51.924 103.333 52.1653 103.577 52.7066C103.854 53.3215 103.516 54.0835 103.642 54.7278C103.724 55.1456 103.904 55.5369 103.98 55.9605C104.058 56.4324 104.103 56.9092 104.113 57.3874C104.192 59.3615 99.6056 60.6442 99.6998 62.0005L97.2608 59.0261C97.2608 58.9026 96.9137 58.5936 96.8372 58.4907C96.6901 58.2936 96.5606 58.0847 96.4253 57.8787C96.0052 57.2775 95.421 56.8098 94.7425 56.5313C94.2631 56.3106 93.848 55.9714 93.5362 55.5457C93.3462 55.2694 93.2214 54.9535 93.1714 54.6219Z" fill="#263238"/>
<path d="M95.0983 57.9229C95.0983 57.9229 94.3069 59.0997 94.4099 59.2232C94.595 59.3447 94.8002 59.4324 95.0159 59.4821L95.0983 57.9229Z" fill="#F28F8F"/>
<path d="M97.5167 54.1864C96.7488 54.5777 95.419 55.2985 95.0748 58.0876C94.7247 60.9472 95.369 61.9416 95.7691 62.3153C96.0368 62.5683 97.4196 62.6595 98.1404 62.4418C99.0406 62.1652 100.997 61.2179 101.912 59.741C102.989 58.0022 103.212 55.6869 101.968 54.7807C100.217 53.5127 98.1698 53.8657 97.5167 54.1864Z" fill="#FFA8A7"/>
<path d="M95.8428 62.377C96.1664 62.5535 97.0873 62.6271 97.7727 62.5271L97.7492 62.0151C97.4551 62.1415 97.1497 62.24 96.8372 62.3093C96.5109 62.3813 96.1758 62.4041 95.8428 62.377Z" fill="#F28F8F"/>
<path d="M97.1813 54.1102C96.8545 54.2296 96.5509 54.4048 96.284 54.628C96.1503 54.7391 96.042 54.8776 95.9663 55.034C95.9082 55.1796 95.886 55.337 95.9016 55.493C95.9244 55.7076 96.0029 55.9126 96.1293 56.0875C96.2558 56.2625 96.4257 56.4013 96.6223 56.4903C96.518 56.6312 96.4464 56.7935 96.4128 56.9656C96.3792 57.1376 96.3844 57.315 96.4282 57.4848C96.5689 57.88 96.8127 58.2304 97.1343 58.4998C97.1505 58.5185 97.1706 58.5335 97.1931 58.5439C97.2157 58.5476 97.2389 58.5461 97.2608 58.5394C97.2827 58.5328 97.3028 58.5212 97.3196 58.5056C97.8021 58.182 98.1022 57.623 98.7906 57.8496C99.688 58.1438 99.6438 59.25 98.9407 59.9384C98.6898 60.1922 98.3575 60.3495 98.0022 60.3827C97.8218 60.3869 97.646 60.3252 97.5079 60.2091C97.5079 60.2091 97.5344 61.6507 98.7877 62.2244C99.6615 62.4788 100.588 62.49 101.468 62.2567C101.942 61.6536 102.736 60.8857 103.389 60.1973C105.54 57.9349 105.663 54.6486 102.489 53.6101C102.38 53.5748 102.271 53.5424 102.159 53.513C101.138 53.2466 100.069 53.2234 99.0378 53.4453C98.5294 53.555 98.0357 53.7238 97.5667 53.9484L97.1813 54.1102Z" fill="#263238"/>
<path d="M97.0784 59.5087C96.9951 59.4807 96.9182 59.4363 96.8525 59.378C96.7867 59.3197 96.7332 59.2488 96.6954 59.1695C96.6575 59.0902 96.636 59.0041 96.632 58.9163C96.6281 58.8285 96.6418 58.7408 96.6724 58.6585C96.7346 58.4912 96.8605 58.3552 97.0225 58.2803C97.1845 58.2054 97.3695 58.1975 97.5373 58.2583L97.0784 59.5087Z" fill="#263238"/>
<path d="M97.4313 114.377C97.5597 114.77 97.6677 115.168 97.755 115.572C97.8462 116.016 97.9756 116.749 97.8197 117.09C97.6638 117.431 97.0577 117.64 96.1192 117.631C95.5131 117.631 94.5658 118.04 93.9156 118.402C93.2654 118.764 91.8562 118.926 91.1442 118.841C90.3087 118.743 89.4437 118.252 89.3084 117.914C89.1731 117.575 89.0613 117.093 91.3207 116.369C91.3413 116.369 94.0568 115.487 95.0101 114.427L97.4313 114.377Z" fill="#263238"/>
<path d="M97.4313 114.439L96.9989 114.386L95.01 114.427C94.0568 115.478 91.3413 116.363 91.3207 116.369L90.9589 116.49C90.5676 116.808 90.9 117.346 91.8415 117.428C92.7829 117.511 95.6808 116.546 96.3251 116.225C96.6625 116.066 96.9466 115.813 97.143 115.496C97.3393 115.179 97.4395 114.812 97.4313 114.439Z" fill="#FFA8A7"/>
<path d="M97.4314 113.586C97.4314 113.586 97.4314 114.13 97.4314 114.439C97.4314 114.748 97.0666 115.213 96.1163 115.181C95.4485 115.157 94.9836 114.978 95.0101 114.427V113.636L97.4314 113.586Z" fill="#FFA8A7"/>
<path d="M103.816 110.803C103.986 110.874 104.022 111.203 104.031 111.859C104.031 112.354 104.119 113.222 103.533 113.377C102.948 113.533 102.103 113.425 101.742 112.948C101.294 112.36 100.994 111.83 100.353 111.103C99.794 110.471 99.1762 109.879 98.979 109.006C98.7907 108.22 98.979 107.885 99.5145 107.673C100.05 107.461 100.541 107.635 101.28 108.261C101.489 108.401 101.711 108.518 101.945 108.611C102.442 108.758 103.645 110.733 103.816 110.803Z" fill="#263238"/>
<path d="M103.83 110.197L103.81 111C103.81 111 103.271 112.053 101.777 111C101.744 110.924 101.612 109.367 101.612 109.367L103.83 110.197Z" fill="#FFA8A7"/>
<path d="M101.95 108.614C101.717 108.521 101.494 108.404 101.285 108.264C100.697 108.07 99.4144 108.294 99.9881 109.167C100.462 109.888 101.069 110.512 101.777 111.006C102.453 111.339 102.692 110.927 102.692 110.927L102.451 109.041C102.319 108.862 102.148 108.716 101.95 108.614Z" fill="#FFA8A7"/>
<path d="M104.91 99.0759C104.771 97.6617 104.475 96.2674 104.027 94.9188C104.027 94.9188 104.533 91.3707 104.931 87.9639C105.866 79.9733 105.242 79.8468 104.113 77.0783C104.113 77.0783 93.8685 75.7603 93.4419 80.0204C92.9065 85.316 93.1477 95.6131 93.2389 97.496C93.3301 99.379 93.4802 100.229 94.0392 104.172C94.4658 107.172 94.8688 113.73 94.8688 113.73C96.2104 114.504 97.5167 113.598 97.5167 113.598C97.5167 113.598 98.7994 105.531 98.77 103.36C98.7491 101.754 98.5207 100.158 98.0904 98.6111C98.0904 98.6111 98.973 89.9644 99.1818 88.5905C99.1818 88.5905 99.429 91.3472 99.5202 93.2301C99.6114 95.113 100.109 96.9194 100.57 100.423C100.959 103.462 101.606 109.806 101.606 109.806C102.951 110.579 103.889 110.229 103.889 110.229C103.889 110.229 105.219 101.712 104.91 99.0759Z" fill="#007367"/>
<g opacity="0.4">
<path d="M104.91 99.0759C104.771 97.6617 104.475 96.2674 104.027 94.9188C104.027 94.9188 104.533 91.3707 104.931 87.9639C105.866 79.9733 105.242 79.8468 104.113 77.0783C104.113 77.0783 93.8685 75.7603 93.4419 80.0204C92.9065 85.316 93.1477 95.6131 93.2389 97.496C93.3301 99.379 93.4802 100.229 94.0392 104.172C94.4658 107.172 94.8688 113.73 94.8688 113.73C96.2104 114.504 97.5167 113.598 97.5167 113.598C97.5167 113.598 98.7994 105.531 98.77 103.36C98.7491 101.754 98.5207 100.158 98.0904 98.6111C98.0904 98.6111 98.973 89.9644 99.1818 88.5905C99.1818 88.5905 99.429 91.3472 99.5202 93.2301C99.6114 95.113 100.109 96.9194 100.57 100.423C100.959 103.462 101.606 109.806 101.606 109.806C102.951 110.579 103.889 110.229 103.889 110.229C103.889 110.229 105.219 101.712 104.91 99.0759Z" fill="black"/>
</g>
<path opacity="0.15" d="M99.1819 88.5762L99.6761 84.8398C101.12 84.837 102.521 84.349 103.654 83.4541C103.654 83.4541 102.983 84.8192 100.262 85.4164L99.7291 89.2617L99.5379 93.4982C99.4476 91.8428 99.329 90.2021 99.1819 88.5762Z" fill="black"/>
<path d="M104.472 65.5602C104.125 64.5305 103.416 63.9244 101.847 63.9067H101.571C101.459 64.4951 99.6203 65.0071 97.9522 64.4187C97.7227 64.4598 96.9284 64.5481 96.5636 64.5981L95.7663 64.7129C94.5542 65.11 94.0187 67.2195 93.901 70.5587C93.7833 73.8979 93.2861 81.0441 93.2861 81.0441C93.2861 81.0441 95.8957 82.4445 100.012 81.9032C103.698 81.4177 105.334 79.2553 105.207 79.526C104.649 77.6849 103.945 75.8914 103.101 74.1627C105.043 69.4054 104.99 67.093 104.472 65.5602Z" fill="#455A64"/>
<path d="M97.9727 82.0329C98.6543 82.0412 99.3356 82.0009 100.011 81.9123C103.374 81.471 105.063 79.6293 105.204 79.5175C104.653 77.68 103.95 75.8919 103.101 74.1718C104.083 71.7622 104.554 69.9823 104.713 68.6113C104.554 69.6116 103.077 73.4833 101.144 74.6425C101.144 74.6425 102.233 74.8131 103.165 76.0929C104.098 77.3727 103.333 81.7593 97.9727 82.0329Z" fill="#37474F"/>
<path d="M96.5635 64.6069C94.9572 64.8099 93.6862 65.1453 92.9831 66.6664C91.8063 69.2642 90.5088 71.3972 89.5733 72.4004C88.573 73.4713 84.4718 75.3424 83.548 75.2041C82.6242 75.0659 81.7033 73.992 81.2267 74.2656C80.7501 74.5392 81.6327 75.5719 81.5739 75.8043C81.515 76.0367 79.841 75.9132 79.0496 75.3542C78.2582 74.7952 77.964 75.9426 78.9878 77.1488C80.0116 78.3551 81.9298 78.4433 84.0275 78.0314C86.1252 77.6196 90.0646 76.5104 91.6768 75.1894C93.6215 73.589 94.2835 72.3769 95.1102 70.9411C98.0963 67.8579 96.5635 64.6069 96.5635 64.6069Z" fill="#FFA8A7"/>
</svg>
